<svg xmlns="http://www.w3.org/2000/svg" width="231.4373" height="203.54" viewBox="0 0 231.4373 203.54"><path d="M0,146.8593l64.9684-.0093c-.13.58-.0435.2541-.1835.8241L62.261,159.35l-.01.05-.01.05c-.16,1.21-.31,2.36.43,3.26.65.79,1.69,1,3.04,1.08h.11a5.5171,5.5171,0,0,0,1.2-.21,5.9747,5.9747,0,0,1,.88-.18l.59-.03.38-.46a6.934,6.934,0,0,0,1.13-2.31,7.2691,7.2691,0,0,1,.34-.91l.01-.01a3.3094,3.3094,0,0,0,.45-.46,3.7716,3.7716,0,0,0,.61-1.67l.03-.26.48-1.97c.03-.13.07-.26.11-.4a9.1035,9.1035,0,0,0,.32-1.52c.04-.12.07-.28.13-.49.07-.3.19-.78.39-1.56l.21-.79-.19-.17c.4-1.77.4183-1.96.8083-3.54H221.081V91.23c10.15-5.03,10.22-5.54,10.33-6.32a1.71,1.71,0,0,0-.07-.88l.02-.49-.73-.4a29.2675,29.2675,0,0,0-5.16-1.37h-.1a7.4115,7.4115,0,0,0-2.94,1.05,2.8666,2.8666,0,0,0-.63.63l-.72.33V18.99A18.9873,18.9873,0,0,0,202.091,0H18.991A18.9873,18.9873,0,0,0,.001,18.99" fill="#fbc00c"/><path d="M163.061,88.42a4.4364,4.4364,0,0,0,.49-1.04,33.0422,33.0422,0,0,0-5.03-2.89c-.36-.02-1.03.86-1.47,1.26a4.5673,4.5673,0,0,0-3.57-1.41,20.3383,20.3383,0,0,0-2.53.34c-.17.11-.19.25-.33.34-4.18,1.45-7.4,4.51-10.47,8.18-.43.5-.66,1.38-1.06,1.85a30.2254,30.2254,0,0,0-2.98,4.93,16.5523,16.5523,0,0,0-1.41,3.38,20.2953,20.2953,0,0,0-.47,2.45c-.63,4.71,3.71,5.46,7.05,5.66,4.06.24,5.36-2.55,9.66-6.59a1.6021,1.6021,0,0,1,.22-.02c.19.52.19,2,.99,2.4a15.5149,15.5149,0,0,0,5.14,1.27,12.3339,12.3339,0,0,0,1.51-.27c.11-.01,2.5-1.65,2.58-2.26.05-.37.01-2.25.09-3.3a.5388.5388,0,0,1-.17-.19,6.2157,6.2157,0,0,0,.15-1.74,6.996,6.996,0,0,0-.31-.84c-1.62.31-2.45,1.65-4.08,3.05l.19-1.41C158.5209,97.37,159.7309,91.75,163.061,88.42Zm-9.62,3.97c-3.46,5.06-7.72,11.26-13.5,15.1l.33-2.46c.96-1.9,1.93-3.78,2.67-5.68a.8124.8124,0,0,0,.37-.3,25.1421,25.1421,0,0,1,2.49-3.46c1.35-1.36,2.43-3.21,3.9-4.71.21-.21.64-.21.89-.45a8.8426,8.8426,0,0,1,5.02-3.41,2.034,2.034,0,0,1,.2,1.06A30.6546,30.6546,0,0,1,153.441,92.39Z" fill="#00953f"/><path d="M229.9809,84.28a30.9723,30.9723,0,0,0-4.59-1.2,6.2366,6.2366,0,0,0-2.21.82c-.26.17-.41.55-.55.62-2.13.98-4.47,2.09-6.47,3.06-3.98,1.93-8.05,3.96-11.99,5.42-7.45,2.8-15.32,6.78-22.49,6.35-.36-.02-1.19.04-1.51-.28a2.6356,2.6356,0,0,1-.42-1.39,12.3925,12.3925,0,0,1-.07-2.27,15.0229,15.0229,0,0,1,.53-2.65,2.1988,2.1988,0,0,1,.56-1.13,7.9586,7.9586,0,0,1,3.01-1.41,4.3916,4.3916,0,0,0,.89-.05c2.31-.93,4.8-2.39,7.09-3.32.57-.23.94-.89,1.7-1,.85-.12,8.67-4.95,9.07-7.96a12.6666,12.6666,0,0,0-.19-2.24c-.23-1.49-4.66-2.76-5.85-2.83-4.03-.24-7.64,3.15-11.44,5.52-1.4,1.53-3.05,2.99-4.19,4.25a36.7467,36.7467,0,0,0-2.79,3.59c-.34.47-.64,1.27-.98,1.77-.86.14-2.19.51-2.55.49-.05,0-1.21-.67-1.13-1.26a18.5954,18.5954,0,0,1,1.05-2.43,14.52,14.52,0,0,0-4.92-2.88c-2.25,3.78-3.88,9.56-5.02,14.59l-1.33,6.74a1.94,1.94,0,0,0,.33,1.3c1.37.44,3.67,1.18,4.03,1.2a1.4273,1.4273,0,0,0,1.05-.28l.6-4.48a59.1488,59.1488,0,0,1,3.3-10.37,21.5233,21.5233,0,0,0,3.21,1.21c-.51,1.07-.18,2.95-.33,4.14a5.7,5.7,0,0,0,1.43,4.28,10.7166,10.7166,0,0,0,6.9,2.42,21.5181,21.5181,0,0,0,7.08-.84,5.59,5.59,0,0,0,.47-.33,6.2537,6.2537,0,0,0,2.07-.27c2.89-1.07,5.98-2.01,8.81-3.22,1.15-.49,2.34-1.15,3.48-1.59,2.18-.85,4.55-1.85,6.78-2.74.34-.13.47-.4.64-.47,1.03-.44,2.29-.62,3.27-1.1,4.19-2.03,13.71-6.74,13.79-7.35C230.141,84.33,229.9809,84.47,229.9809,84.28Zm-42.05-1.81a17.532,17.532,0,0,1,3.59-2.94c.77-.46,1.45-1.26,2.41-1.86a24.1378,24.1378,0,0,1,4.04-1.91c.16.01.19.26.12.41-1.89,3.03-6.5,5.26-8.83,6.79a23.6045,23.6045,0,0,1-3.32,1.5A15.4741,15.4741,0,0,1,187.9309,82.47Z" fill="#00953f"/><path d="M139.3909,91.84c.14-1.04-4.57-3.51-5.24-3.68-2.45,2.57-3.76,6.25-5.7,9.13a28.1091,28.1091,0,0,0-2.35,4.52c-.81,1.86-1.56,3.81-2.11,5.41-.1.13-.25.26-.35.38a4.35,4.35,0,0,1-.01-1.65,10.7308,10.7308,0,0,1,.5-2.42c.13-.27.43-.24.48-.61l.36-2.69a20.2269,20.2269,0,0,0-4.86-3.17c-1.55,1.58-3.43,3.57-5.07,5.46-.21.23-.22.59-.32.68-1.95,1.53-3.72,4.83-5.09,6.57.26-1.56.47-3.1.52-3.47s1.03-3.4,1.42-5c.12-.13.25.06.3-.31.3-2.23,1.82-3.94,2-5.27.07-.48-4.18-2.87-4.67-2.9a43.0364,43.0364,0,0,0-5.49,2.98,55.5336,55.5336,0,0,1,3.35-10.5c.23-.6.9-1.61.95-1.98a1.9733,1.9733,0,0,0-.22-1.16,18.2062,18.2062,0,0,0-3.2-1.89,1.7281,1.7281,0,0,0-1.15.77,55.0882,55.0882,0,0,0-3.02,7.47c-1.06,3.64-2.28,7.74-3.46,11.26a8.9668,8.9668,0,0,1-1.12.54c-1.32.69-2.72,1.6-3.94,2.22-2.25,1.14-5.56,2.31-6.25,4.98-.08.35-.46.64-.5,1.01l-.15,1.12c3.48-1.44,6.74-2.44,9.81-4.06l-.05.37c-.7,1.74-1.23,3.52-1.69,5.08a6.1883,6.1883,0,0,0-2.82-1.37c-1.06-.06-3.48.84-5.44,1.54h0a11.4754,11.4754,0,0,1-2.75.81c-.36-.02-.17.01-.28-.11q.1349-.45.24-.87a11.929,11.929,0,0,1,1.44-4.08l.34-2.53c.05-.37.43-.64.51-.93a105.1732,105.1732,0,0,1,5.54-14.87c.21-.44.6-1.09.8-1.6a13.124,13.124,0,0,1,2.32-2.77,16.4765,16.4765,0,0,0,2.79-.06c-.54-1.04-3.8-2.88-4.09-2.89-1.24-.07-3.97,2.17-4.56,3.1-4.1,6.49-6.23,13.01-8.53,19.84-.6,1.8-.98,4.01-2.12,5.95a5.9316,5.9316,0,0,0-2.09-2.48c-1.46-.72-5.53-2.92-7.64-3.04a5.5812,5.5812,0,0,0-4.23,1.73c-.07.16-.1.45-.17.59-.9.95-1.89,1.88-2.65,2.72-.03.03-.06.07-.09.1a34.0705,34.0705,0,0,0-3.14,4.02c-.78,1.23-1.52,2.46-2.21,3.72-.94-2.21-3.3-3.16-4.57-4.36a10.8363,10.8363,0,0,0-7.45-2.94,47.4549,47.4549,0,0,0-9.37.83c-1.07.16-2.91.84-3.27.81-.36-.02-.21-.12-.21-.12a1.7868,1.7868,0,0,1,.44-.93c1.09-.91,2.19-1.8,3.32-2.66,7.04-5.36,14.69-9.47,21.09-9.46a1.374,1.374,0,0,0,.52-.29c-1.82-2.06-3.98-4.04-6.36-4.19-4-.24-14.86,6.1-17.46,7.89a42.6327,42.6327,0,0,0-7.15,5.52h.01a7.7583,7.7583,0,0,0-2.18,3.99,2.7424,2.7424,0,0,0,.69,1.84c2.09,1.9,4.65,2.01,7.2,2.89l14.51-1.98a17.0915,17.0915,0,0,0,2.23-.02,6.6707,6.6707,0,0,1,2.17.31c.51.24.82,1.05,1.09,1.59a8.0667,8.0667,0,0,1,.57,2.97c-.02.12-.03.23-.06.35-1.47,7.69-17.44,16.33-22.03,17.1-.17.11-.33.25-.47.33a52.3051,52.3051,0,0,1-7.04,1.14c-.1-.14-.3-.17-1.6-.1-.97-.21-2.24-.11-3.05-.68-2.39-1.72-3.54-6.73-3.19-9.37l.57-4.27c.05-.37.3-.07.35-.45.05-.37-.25-.52-.38-.65a28.56,28.56,0,0,0-2.83-1.67,7.9029,7.9029,0,0,0-2.6-.34,4.3325,4.3325,0,0,0-.8,2.41c-.05.37.02,3.07-.03,3.45-.05.37-.26.66-.2.77a5.4893,5.4893,0,0,1,.55,1.66,23.2018,23.2018,0,0,0,.51,2.4.7844.7844,0,0,1,.28.36,10.1641,10.1641,0,0,0,4.79,6.65,21.7,21.7,0,0,0,8.21,2.85c1.68.25,1.92.26,2.28.29a27.9964,27.9964,0,0,0,10.27-1.91,41.8649,41.8649,0,0,0,5.62-2.46,46.0794,46.0794,0,0,0,6.81-4.39c1.84-1.46,3.7-3.47,5.4-4.85-.19,4.62,3,5.57,6.48,5.78a9.13,9.13,0,0,0,3.36-.01c4.84-2.02,8.1-5.91,11.17-10.06l-.13.97c-.52,2.05-1.12,4.11-1.7,6.17-.21.72-.43,1.48-.56,2.05-.1.13-.21-.23-.26.14l-.28,2.11c-.05.37-.44.58-.51.88-.52,1.87-.96,3.77-1.39,5.69h0c-.43,1.93-.86,3.87-1.33,5.8l-2.64,12.21c-.28,2.12-.25,2.68,2.22,2.83.36.02,1.43-.36,2.04-.39.76-.93.85-2.1,1.34-3.05.13-.28.37-.36.56-.61a2.6484,2.6484,0,0,0,.35-1.03l.29-2.19c.05-.37.25-.18.25-.18a11.1784,11.1784,0,0,0,.41-1.89c.07-.13.11-.44.55-2.1-.21-.19-.14-.29-.14-.29.63-2.78,1.33-5.73,2.06-8.54a1.3038,1.3038,0,0,0,.04-.21,9.6793,9.6793,0,0,1,.33-2.17c1.04-3.85,2.4-7.79,3.52-11.62.65-2.2,1.08-3.93,1.65-6.17l.19-.72c.06-.23.15-.54.17-.64.35-1.62.33-1.46.56-2.35a.975.975,0,0,1,.58-.61c1.94-.56,3.96-1.22,5.88-1.84.83-.27,5.03-2.19,5.46-2.16.36.02.24-.01.35.12l-1.56,7.3c-.04.27-.08.6-.12.94-.13,1.15-.18,2.53.49,3.05a2.1492,2.1492,0,0,0,1.23.29c2.73.16,2.94-.8,3.6-3.03.16-.54.35-1.17.61-1.87a1.748,1.748,0,0,0,.07-.9c.11-.11.15-.41.27-.57.12-.46.22-.92.33-1.34.38-1.31.73-2.65,1.09-3.83.15-.5.37-1.15.59-1.78.35-1.02.69-1.99.72-2.22l.27-2.04a25.4255,25.4255,0,0,1,.9-3.24,6.6432,6.6432,0,0,1,1.16-2.3,12.5967,12.5967,0,0,1,4.13-2.42c.36.02.21.12.21.12-.55,1.87-1.3,4.29-1.35,4.66l-.97,7.27h-.01l-.04.33a35.4394,35.4394,0,0,0,.12,4.93,3.3912,3.3912,0,0,0,.91,2.05,7.5023,7.5023,0,0,0,2.45.97l1.93.11a49.414,49.414,0,0,0,2.79-4.39c.6-1.09,1-2.31,1.66-3.25a51.4532,51.4532,0,0,1,5.01-6.36,60.54,60.54,0,0,0,.29,6.98c.03.24.07.49.12.73a22.5367,22.5367,0,0,0,1.39,3.56,28.4384,28.4384,0,0,0,4.22,1.37,3.4775,3.4775,0,0,0,.51-.62c.14-.61.15-1.22.33-1.79.29-.91.7-1.85,1.11-2.8.32-.74.64-1.47.91-2.17.68-1.74,1.24-3.59,2.09-5.25a92.3917,92.3917,0,0,1,6.26-10.1C136.1509,95.86,139.3309,92.27,139.3909,91.84Zm-68.15,20.22a18.2051,18.2051,0,0,1-1.29,3.79c-.26.47-.64,1.27-.96,1.8-.37.6-2.75,1.56-2.86,2.42a.6449.6449,0,0,0,.06.33h-.01c0,.01.01.01.01.02a1.1,1.1,0,0,0,.07.16l.05.1a3.3329,3.3329,0,0,0,.52.54c-1.85,2.84-5.32,7.99-9.43,9.26a3.2377,3.2377,0,0,1,.11-2.23c.05-.37-.29-1.06-.24-1.44.05-.37,1.04-2.8,1.53-4.27.26-.77.53-1.56.83-2.35a23.8765,23.8765,0,0,1,3.36-6.26,9.099,9.099,0,0,0,1.4-2.57s.6-.56,1.37-1.27c1.28-1.17,3.05-2.74,3.36-2.72,1.26.08,1.86,1.66,2.06,3.04h0A6.4077,6.4077,0,0,1,71.2409,112.06Z" fill="#00953f"/><path d="M56.1109,91.4a41.0963,41.0963,0,0,0,22.69-6.68l.28-.19V60.4a40.9659,40.9659,0,0,0,11.52,19.75,3.3449,3.3449,0,0,1,1.03-.2h.14c.87.05,4.48,2.22,5.2,3.62l.86,1.67-.53.08c.76.47,1.55.92,2.34,1.34.71-2.01,1.64-4.07,2.49-5.94l.11-.24a3.0032,3.0032,0,0,1,2.35-1.56h.1c.22.01.89.06,3.88,2.13l.24.16.15.25a3.3449,3.3449,0,0,1,.4,2.03,4.5483,4.5483,0,0,1-.62,1.48,7.705,7.705,0,0,0-.41.8c-.22.58-.44,1.14-.65,1.7-.28.73-.56,1.45-.83,2.17a40.4826,40.4826,0,0,0,11.82,1.75,42.2408,42.2408,0,0,0,12.83-2,15.2309,15.2309,0,0,1,1.69-2.15l.54-.57.76.19c.02.01.73.29,1.65.75a39.041,39.041,0,0,0,5.21-2.9l.28-.19V45.46h-19.12V71.94a21.7263,21.7263,0,1,1-3.85-43.11h30.66V63.95a27.3753,27.3753,0,0,0,8.19,19.54,1.8,1.8,0,0,1,1.01-.34h.09c1.1.07,5.65,3.09,5.7,3.12l.91.62-.43,1.02c-.05.12-.1.24-.14.34-.04.09-.08.17-.12.26.21.1.42.21.63.31a36.6077,36.6077,0,0,1,3.22-7.65l.53-.89.99.28a15.7884,15.7884,0,0,1,5.47,3.19l.7.66-.4.88c-.11.25-.24.51-.36.77-.14.29-.32.68-.45.98.23-.04.52-.11.74-.16.21-.05.42-.09.63-.14.04-.08.08-.17.12-.25a8.2735,8.2735,0,0,1,.62-1.1,38.7156,38.7156,0,0,1,2.89-3.71c.58-.64,1.27-1.31,1.99-2.02.74-.72,1.5-1.47,2.2-2.23l.12-.14.16-.1c.84-.52,1.7-1.12,2.54-1.69,2.87-1.99,5.84-4.04,9.21-4.04h0c.16,0,.32,0,.48.01a14.2319,14.2319,0,0,1,5.84,2.14,27.1922,27.1922,0,0,0,1.76-9.66V9.71h-19.12V63.95a8.31,8.31,0,0,1-16.62,0V9.71h-49.78a40.8815,40.8815,0,0,0-40.49,35.75H59.921V71.94a21.6952,21.6952,0,0,1-3.84.33h-.01a21.715,21.715,0,0,1,.01-43.43h22.97V9.72H56.081a40.84,40.84,0,1,0,.03,81.68Z" fill="#00953f"/><path d="M0,184.48a19.1484,19.1484,0,0,0,19.1609,19.06h182.91a19.02,19.02,0,0,0,19.01-19.06V146.85H73.6994l-.8083,3.5c-.12.48-.34,2.3-.4,2.52-.05.21-.09.36-.13.49a9.0835,9.0835,0,0,1-.32,1.52c-.04.14-.07.28-.11.4l-.48,1.97-.03.26a3.9088,3.9088,0,0,1-.61,1.67,3.2977,3.2977,0,0,1-.45.46l-.01.01a8.4,8.4,0,0,0-.34.91,6.7485,6.7485,0,0,1-1.13,2.31l-.38.46-.59.03a7.2538,7.2538,0,0,0-.88.18,5.4183,5.4183,0,0,1-1.2.21h-.11c-1.35-.08-2.39-.29-3.04-1.08-.74-.9-.59-2.05-.43-3.26l.01-.05.01-.05,2.6975-12.46H0" fill="#00953f"/><path d="M9.161,180.5a3.6911,3.6911,0,0,1,3.5-3.98c2.05,0,3.13,1.48,3.13,3.6a4.6859,4.6859,0,0,1-.08.87h-4.82a2.1534,2.1534,0,0,0,2.24,2.11,3.2078,3.2078,0,0,0,1.76-.55l.61,1.11a4.6915,4.6915,0,0,1-2.6.82A3.6741,3.6741,0,0,1,9.161,180.5Zm5.09-.73c0-1.17-.52-1.88-1.56-1.88a1.913,1.913,0,0,0-1.82,1.88Z" fill="#fff"/><path d="M18.4809,180.33l-2.24-3.63h1.92l.84,1.44c.22.42.46.86.69,1.28h.06c.19-.42.41-.86.6-1.28l.72-1.44h1.85l-2.24,3.83,2.4,3.76h-1.92l-.93-1.5c-.25-.44-.5-.91-.77-1.34h-.06c-.23.43-.45.89-.67,1.34l-.8,1.5h-1.85Z" fill="#fff"/><path d="M23.2609,180.5a3.7478,3.7478,0,0,1,3.81-3.98,3.2649,3.2649,0,0,1,2.22.85l-.87,1.15a1.8819,1.8819,0,0,0-1.26-.56c-1.22,0-2.07,1.01-2.07,2.53s.83,2.52,2.01,2.52a2.4741,2.4741,0,0,0,1.57-.66l.72,1.17a3.7391,3.7391,0,0,1-2.48.93C24.8509,184.47,23.2609,183.01,23.2609,180.5Z" fill="#fff"/><path d="M30.5909,182.33v-8.96h1.78v9.05c0,.44.2.59.38.59a1.1013,1.1013,0,0,0,.28-.03l.22,1.33a2.4433,2.4433,0,0,1-.94.15C31.0509,184.47,30.5909,183.65,30.5909,182.33Z" fill="#fff"/><path d="M34.381,181.46V176.7h1.78v4.53c0,1.25.36,1.72,1.18,1.72.67,0,1.11-.31,1.68-1.05v-5.19h1.78v7.59h-1.46l-.14-1.12h-.05a3.0874,3.0874,0,0,1-2.44,1.3C35.0909,184.47,34.381,183.37,34.381,181.46Z" fill="#fff"/><path d="M41.9809,183.41l.83-1.13a3.3269,3.3269,0,0,0,2.09.85c.83,0,1.22-.39,1.22-.91,0-.64-.82-.92-1.63-1.23-.99-.37-2.13-.95-2.13-2.21,0-1.32,1.06-2.27,2.76-2.27a4.0761,4.0761,0,0,1,2.52.91l-.82,1.09a2.8345,2.8345,0,0,0-1.66-.66c-.76,0-1.12.36-1.12.84,0,.6.77.83,1.59,1.13,1.03.38,2.17.88,2.17,2.29,0,1.3-1.03,2.35-2.95,2.35A4.6324,4.6324,0,0,1,41.9809,183.41Z" fill="#fff"/><path d="M48.881,174.36a1.104,1.104,0,1,1,1.1,1.01A1.0186,1.0186,0,0,1,48.881,174.36Zm.2,2.34h1.78v7.59h-1.78Z" fill="#fff"/><path d="M51.8709,176.7h1.8l1.2,3.94c.21.75.43,1.53.64,2.29h.06c.21-.76.43-1.54.64-2.29l1.2-3.94h1.72l-2.58,7.59h-2.06Z" fill="#fff"/><path d="M59.5509,180.5a3.6912,3.6912,0,0,1,3.5-3.98c2.05,0,3.13,1.48,3.13,3.6a4.6959,4.6959,0,0,1-.08.87h-4.81a2.1534,2.1534,0,0,0,2.24,2.11,3.208,3.208,0,0,0,1.76-.55l.6,1.11a4.6911,4.6911,0,0,1-2.6.82A3.68,3.68,0,0,1,59.5509,180.5Zm5.1-.73c0-1.17-.52-1.88-1.56-1.88a1.9128,1.9128,0,0,0-1.82,1.88Z" fill="#fff"/><path d="M67.5709,182.33v-8.96h1.78v9.05c0,.44.2.59.38.59a1.1009,1.1009,0,0,0,.28-.03l.22,1.33a2.4429,2.4429,0,0,1-.94.15C68.0409,184.47,67.5709,183.65,67.5709,182.33Z" fill="#fff"/><path d="M70.9609,187.24l.33-1.38a2.2507,2.2507,0,0,0,.54.1,1.59,1.59,0,0,0,1.51-1.3l.14-.48-2.98-7.49h1.8l1.31,3.72c.23.67.44,1.42.67,2.14h.06c.19-.7.38-1.45.58-2.14l1.13-3.72h1.72l-2.74,7.93c-.63,1.71-1.43,2.77-3.08,2.77A2.58,2.58,0,0,1,70.9609,187.24Z" fill="#fff"/><path d="M83.161,183.49h-.05l-.15.8h-1.4V173.38h1.78v2.82l-.05,1.26a3.4178,3.4178,0,0,1,2.19-.95c1.9,0,2.99,1.52,2.99,3.85,0,2.6-1.55,4.1-3.24,4.1A2.9971,2.9971,0,0,1,83.161,183.49Zm3.48-3.1c0-1.51-.49-2.41-1.65-2.41a2.4126,2.4126,0,0,0-1.66.85v3.53a2.354,2.354,0,0,0,1.52.63C85.8709,183,86.6409,182.11,86.6409,180.39Z" fill="#fff"/><path d="M89.3609,187.24l.33-1.38a2.1613,2.1613,0,0,0,.54.1,1.59,1.59,0,0,0,1.51-1.3l.14-.48-2.98-7.49h1.8l1.31,3.72c.23.67.45,1.42.67,2.14h.06c.19-.7.38-1.45.58-2.14l1.13-3.72h1.72l-2.74,7.93c-.63,1.71-1.43,2.77-3.08,2.77A2.58,2.58,0,0,1,89.3609,187.24Z" fill="#fff"/><path d="M100.6409,177.63a6.71,6.71,0,0,1,6.94-6.99,5.7767,5.7767,0,0,1,3.89,1.43l-1.86,2.54a2.7032,2.7032,0,0,0-1.81-.79c-1.9,0-3.12,1.5-3.12,3.8s1.27,3.79,2.98,3.79a3.9885,3.9885,0,0,0,2.4-.98l1.55,2.58a6.69,6.69,0,0,1-4.39,1.59C103.501,184.61,100.6409,182.05,100.6409,177.63Z" fill="#fff"/><path d="M113.6409,166.95a2.2917,2.2917,0,1,1,2.28,2.06A2.0977,2.0977,0,0,1,113.6409,166.95Zm.31,4.01h3.95v13.32h-3.95Z" fill="#fff"/><path d="M119.941,170.96h3.97l1.73,6.29c.34,1.32.69,2.7,1.03,4.09h.11c.34-1.39.69-2.77,1.03-4.09l1.73-6.29h3.78l-4.35,13.32h-4.55Z" fill="#fff"/><path d="M135.0909,166.95a2.2917,2.2917,0,1,1,2.28,2.06A2.0977,2.0977,0,0,1,135.0909,166.95Zm.31,4.01h3.95v13.32h-3.95Z" fill="#fff"/><path d="M142.811,180.15V165.48h3.95v14.83c0,.85.39,1.12.71,1.12a1.8114,1.8114,0,0,0,.48-.05l.47,2.91a5.0307,5.0307,0,0,1-1.98.33C143.7309,184.61,142.811,182.84,142.811,180.15Z" fill="#fff"/><path d="M149.311,182.75l1.78-2.46a5.7958,5.7958,0,0,0,3.44,1.4c1.17,0,1.68-.45,1.68-1.15,0-.88-1.32-1.28-2.69-1.81-1.63-.63-3.53-1.72-3.53-3.92,0-2.48,2.02-4.17,5.09-4.17a7.5662,7.5662,0,0,1,4.7,1.69l-1.77,2.37a4.9477,4.9477,0,0,0-2.81-1.14c-1.02,0-1.52.4-1.52,1.06,0,.85,1.25,1.17,2.63,1.68,1.69.62,3.59,1.57,3.59,4.01,0,2.41-1.9,4.3-5.47,4.3A8.5984,8.5984,0,0,1,149.311,182.75Z" fill="#fff"/><path d="M161.6009,177.63c0-4.32,3.08-6.99,6.28-6.99,3.79,0,5.67,2.76,5.67,6.39a9.4157,9.4157,0,0,1-.16,1.74h-7.97a3.217,3.217,0,0,0,3.46,2.82,5.6069,5.6069,0,0,0,2.88-.87l1.3,2.38a8.6247,8.6247,0,0,1-4.73,1.5C164.5409,184.61,161.6009,182.04,161.6009,177.63Zm8.59-1.46c0-1.47-.64-2.52-2.21-2.52a2.644,2.644,0,0,0-2.59,2.52Z" fill="#fff"/><path d="M176.281,170.96h3.22l.28,2.33h.1a4.5049,4.5049,0,0,1,3.78-2.65,3.73,3.73,0,0,1,1.59.27l-.66,3.41a5.3156,5.3156,0,0,0-1.44-.21c-1.01,0-2.22.65-2.93,2.46v7.72h-3.95V170.96Z" fill="#fff"/><path d="M185.7409,170.96h3.97l1.73,6.29c.34,1.32.69,2.7,1.03,4.09h.11c.34-1.39.69-2.77,1.03-4.09l1.73-6.29h3.78l-4.35,13.32h-4.55Z" fill="#fff"/><path d="M200.2109,177.63c0-4.32,3.08-6.99,6.28-6.99,3.79,0,5.67,2.76,5.67,6.39a8.46,8.46,0,0,1-.17,1.74h-7.97a3.217,3.217,0,0,0,3.46,2.82,5.6069,5.6069,0,0,0,2.88-.87l1.31,2.38a8.6245,8.6245,0,0,1-4.73,1.5C203.1509,184.61,200.2109,182.04,200.2109,177.63Zm8.58-1.46c0-1.47-.64-2.52-2.21-2.52a2.644,2.644,0,0,0-2.59,2.52Z" fill="#fff"/></svg>